<?xml version="1.0" standalone="no"?>
<!DOCTYPE svg PUBLIC "-//W3C//DTD SVG 20010904//EN"
 "http://www.w3.org/TR/2001/REC-SVG-20010904/DTD/svg10.dtd">
<svg version="1.0" xmlns="http://www.w3.org/2000/svg"
 width="512.000000pt" height="512.000000pt" viewBox="0 0 512.000000 512.000000"
 preserveAspectRatio="xMidYMid meet">
<metadata>
Created by potrace 1.14, written by Peter Selinger 2001-2017
</metadata>
<g transform="translate(0.000000,512.000000) scale(0.100000,-0.100000)"
fill="#000000" stroke="none">
<path d="M3650 3839 c0 -597 1 -631 18 -625 15 7 168 93 587 336 83 47 228
131 322 186 95 54 173 101 173 104 -1 3 -40 27 -88 54 -48 27 -197 113 -332
191 -558 322 -668 385 -674 385 -3 0 -6 -284 -6 -631z"/>
<path d="M3258 2971 c-216 -125 -464 -267 -550 -317 -87 -49 -157 -91 -157
-94 -1 -3 246 -147 547 -321 l547 -315 3 -637 c1 -350 0 -637 -2 -637 -2 0
-247 140 -543 311 -296 171 -545 314 -553 317 -8 3 -217 123 -465 265 -247
143 -569 328 -715 412 -244 140 -455 262 -873 504 -87 50 -160 91 -163 91 -2
0 -4 -287 -4 -637 l1 -638 512 -295 c629 -361 1421 -818 1581 -911 l118 -70
307 177 c168 97 493 285 721 417 499 289 799 462 1020 590 l165 95 3 640 2
640 -307 178 c-170 98 -419 242 -555 320 l-247 142 -393 -227z"/>
</g>
</svg>
